<?xml version="1.0" encoding="UTF-8"?>
<svg width="672px" height="672px" viewBox="0 0 672 672" version="1.1" xmlns="http://www.w3.org/2000/svg" xmlns:xlink="http://www.w3.org/1999/xlink">
    <!-- Generator: Sketch 61.2 (89653) - https://sketch.com -->
    <title>Page-2 2</title>
    <desc>Created with Sketch.</desc>
    <g id="Page-2" stroke="none" stroke-width="1" fill="none" fill-rule="evenodd" opacity="0.2">
        <g id="Page-2-2" transform="translate(4.000000, 6.000000)" stroke="#FFFFFF" stroke-width="5">
            <g id="Page-2" transform="translate(0.000000, -0.000000)">
                <g id="Group-9">
                    <polygon id="Triangle" points="332 -2.67759763e-13 664 662.064486 0 662.064486"></polygon>
                    <polygon id="Triangle" points="332 66.2064486 630.8 662.064486 33.2 662.064486"></polygon>
                    <polygon id="Triangle" points="332 132.412897 597.6 662.064486 66.4 662.064486"></polygon>
                    <polygon id="Triangle" points="332 198.619346 564.4 662.064486 99.6 662.064486"></polygon>
                    <polygon id="Triangle" points="332 264.825795 531.2 662.064486 132.8 662.064486"></polygon>
                    <polygon id="Triangle" points="332 331.032242 498 662.064486 166 662.064486"></polygon>
                    <polygon id="Triangle" points="332 397.238691 464.8 662.064486 199.2 662.064486"></polygon>
                    <polygon id="Triangle" points="332 463.44514 431.6 662.064486 232.4 662.064486"></polygon>
                    <polygon id="Triangle" points="332 529.651588 398.4 662.064486 265.6 662.064486"></polygon>
                    <polygon id="Triangle" points="332 595.858037 365.2 662.064486 298.8 662.064486"></polygon>
                    <line x1="332.664" y1="0.662064486" x2="332.664" y2="662.72655" id="Line-4" stroke-linecap="square"></line>
                </g>
            </g>
        </g>
    </g>
</svg>