<?xml version="1.0" encoding="UTF-8"?>
<svg width="108px" height="30px" viewBox="0 0 108 30" version="1.1" xmlns="http://www.w3.org/2000/svg" xmlns:xlink="http://www.w3.org/1999/xlink">
    <!-- Generator: Sketch 61.2 (89653) - https://sketch.com -->
    <title>Group 7</title>
    <desc>Created with Sketch.</desc>
    <g id="Page-2" stroke="none" stroke-width="1" fill="none" fill-rule="evenodd">
        <g id="Desktop-HD" transform="translate(-189.000000, -200.000000)" fill="#000000" fill-rule="nonzero">
            <g id="Group-7" transform="translate(189.000000, 200.000000)">
                <path d="M10.7245168,29.5467735 C12.3669476,29.5467735 13.2346468,28.6619318 13.3276146,26.8922484 L13.3276146,26.8922484 L12.7543133,26.8922484 C12.5890373,27.9064529 12.1655174,28.4135552 11.4837537,28.4135552 C11.0705635,28.4135552 10.8019899,28.2427963 10.6780329,27.9012784 C10.5540759,27.5597606 10.4920974,26.7887581 10.4920974,25.5882711 L10.4920974,25.5882711 L10.4920974,20.4499797 C10.4920974,19.363332 10.3758876,18.556108 10.1434682,18.0283076 C9.91104873,17.5005073 9.43329764,17.0296266 8.71021492,16.6156656 C7.98713219,16.2017045 6.9696515,15.994724 5.65777283,15.994724 C3.89138503,15.994724 2.58983612,16.3336546 1.75312611,17.0115158 C0.916416097,17.689377 0.498061091,18.3232549 0.498061091,18.9131494 C0.498061091,19.5133929 0.813118565,19.8135146 1.44323351,19.8135146 C2.14565673,19.8135146 2.57950637,19.2857143 2.74478242,18.2301136 C2.92038823,17.195211 3.78292262,16.6777597 5.33238561,16.6777597 C6.1071171,16.6777597 6.73206717,16.8329951 7.20723582,17.1434659 C7.68240447,17.4539367 7.97680244,17.8058036 8.09042972,18.1990666 C8.20405701,18.5923295 8.26087065,19.2287946 8.26087065,20.1084619 L8.26087065,20.1084619 L8.26087065,20.7294034 L5.85920302,21.7073864 C4.0308367,22.4628653 2.59758344,23.2390422 1.55944324,24.0359172 C0.521303036,24.8327922 0.00223293538,25.7642045 0.00223293538,26.8301542 C0.00223293538,27.6477273 0.312125533,28.3048904 0.931910727,28.8016437 C1.55169592,29.2983969 2.29027328,29.5467735 3.1476428,29.5467735 C3.81907676,29.5467735 4.58089606,29.3604911 5.4331007,28.9879261 C6.28530534,28.6153612 7.22789533,28.0616883 8.26087065,27.3269075 C8.38482769,28.0616883 8.65081884,28.6153612 9.05884409,28.9879261 C9.46686934,29.3604911 10.0220936,29.5467735 10.7245168,29.5467735 Z M4.41820245,28.4135552 C3.87072552,28.4135552 3.42654613,28.2143364 3.08566428,27.8158989 C2.74478242,27.4174614 2.57434149,26.8922484 2.57434149,26.2402597 C2.57434149,24.5947646 3.90687966,23.2286932 6.571956,22.1420455 L6.571956,22.1420455 L8.26087065,21.4590097 L8.26087065,26.4886364 C7.46547965,27.130276 6.7475618,27.6115057 6.1071171,27.9323255 C5.4666724,28.2531453 4.90370085,28.4135552 4.41820245,28.4135552 Z M19.339531,29.733056 C20.4448146,29.733056 21.3615802,29.3863636 22.0898278,28.6929789 C22.8180754,27.9995942 23.1821992,27.0992289 23.1821992,25.9918831 C23.1821992,25.2881494 22.9859339,24.5533685 22.5934033,23.7875406 C22.2008726,23.0320617 21.1265783,22.2558847 19.3705203,21.4590097 C18.2032581,20.9312094 17.413032,20.4603287 16.9998419,20.0463677 C16.576322,19.6427557 16.3645621,19.161526 16.3645621,18.6026786 C16.3645621,18.0955763 16.5556625,17.6505682 16.9378634,17.2676542 C17.3200642,16.8847403 17.8210573,16.6932833 18.4408425,16.6932833 C19.2465632,16.6932833 19.946404,17.0322139 20.5403648,17.7100751 C21.1343256,18.3879363 21.5346036,19.1977476 21.7411986,20.1395089 L21.7411986,20.1395089 L22.3144999,20.1395089 L22.3144999,16.2120536 L21.7411986,16.2120536 C21.4932846,16.8122971 21.2918544,17.1900365 21.1369081,17.3452719 C20.4138253,16.4449067 19.4996422,15.994724 18.3943586,15.994724 C17.3097345,15.994724 16.4678596,16.3750507 15.8687339,17.1357041 C15.2696082,17.8963575 14.9700454,18.6958198 14.9700454,19.5340909 C14.9700454,20.4137581 15.2489487,21.1537135 15.8067554,21.753957 C16.3645621,22.3645495 17.2839101,22.9854911 18.5647995,23.6167817 C19.7837104,24.2170252 20.6049258,24.7293019 21.0284457,25.153612 C21.4416358,25.5779221 21.6482308,26.1212459 21.6482308,26.7835836 C21.6482308,27.35278 21.454548,27.8754058 21.0671822,28.351461 C20.6798165,28.8275162 20.093603,29.0655438 19.3085417,29.0655438 C17.5008349,29.0655438 16.2457699,27.8598823 15.5433467,25.4485593 L15.5433467,25.4485593 L14.9390561,25.4485593 L14.9390561,29.6243912 L15.5433467,29.6243912 C15.7189525,29.0448458 15.9462071,28.5998377 16.2251104,28.2893669 C17.1341287,29.2518263 18.1722689,29.733056 19.339531,29.733056 Z M31.4253423,29.2207792 L31.4253423,28.5066964 C30.7125893,28.5066964 30.221926,28.421317 29.9533525,28.250558 C29.6847789,28.0797991 29.5272501,27.8288352 29.4807662,27.4976664 C29.4342824,27.1664976 29.4110404,26.2868304 29.4110404,24.8586648 L29.4110404,19.766944 C29.8965388,18.8251826 30.4595104,18.1188616 31.0999551,17.6479809 C31.7403998,17.1771002 32.4634825,16.9416599 33.2692032,16.9416599 C33.9612967,16.9416599 34.5371805,17.1072443 34.9968545,17.4384131 C35.4565285,17.769582 35.748344,18.1887175 35.8723011,18.6958198 C35.9962581,19.2029221 36.0582366,19.9842735 36.0582366,21.0398742 L36.0582366,21.0398742 L36.0579157,25.1735905 C36.0553486,26.3937958 36.0373785,27.1400279 36.0040054,27.4122869 C35.9678513,27.7072342 35.8387294,27.9633726 35.6166397,28.1807021 C35.39455,28.3980317 34.9064691,28.5066964 34.1523971,28.5066964 L34.1523971,28.5066964 L33.8579992,28.5066964 L33.8579992,29.2207792 L40.4122276,29.2207792 L40.4122276,28.5066964 C39.6581556,28.5066964 39.141668,28.431666 38.8627646,28.2816051 C38.5838613,28.1315442 38.4160028,27.8961039 38.3591892,27.5752841 C38.3023755,27.2544643 38.2739687,26.3489245 38.2739687,24.8586648 L38.2739687,21.350345 C38.2739687,19.9221794 38.1706712,18.889864 37.9640761,18.2533989 C37.757481,17.6169338 37.3107192,17.0813718 36.6237906,16.6467127 C35.936862,16.2120536 35.0717452,15.994724 34.0284401,15.994724 C33.1090921,15.994724 32.2646347,16.2120536 31.4950681,16.6467127 C30.7255015,17.0813718 30.0308256,17.7333604 29.4110404,18.6026786 L29.4110404,18.6026786 L29.4110404,7.87591315 L29.0856532,7.87591315 C28.0216886,8.31057224 26.6891504,8.52790179 25.0880387,8.52790179 L25.0880387,8.52790179 L25.0880387,9.24198458 C26.0073867,9.24198458 26.5884353,9.41274351 26.8311845,9.75426136 C27.0739337,10.0957792 27.1953083,10.9081778 27.1953083,12.191457 L27.1953083,12.191457 L27.1949874,25.1758869 C27.1924203,26.4049103 27.1744502,27.1555515 27.1410771,27.4278105 C27.104923,27.7227577 26.9758011,27.9763088 26.7537114,28.1884639 C26.5316217,28.4006189 26.0487057,28.5066964 25.3049635,28.5066964 L25.3049635,28.5066964 L24.9795763,28.5066964 L24.9795763,29.2207792 L31.4253423,29.2207792 Z M48.810317,29.2207792 L48.810317,28.5066964 L48.3764674,28.5066964 C47.7153632,28.5066964 47.2556891,28.4135552 46.9974453,28.2272727 C46.7392015,28.0409903 46.5920025,27.7719156 46.5558483,27.4200487 C46.5196942,27.0681818 46.5016171,26.2143872 46.5016171,24.8586648 L46.5016171,24.8586648 L46.5016171,22.5922281 C46.5016171,21.4538352 46.58942,20.5586445 46.7650259,19.9066558 C46.9406317,19.2546672 47.3383272,18.6259639 47.9581124,18.0205459 C48.5778975,17.4151278 49.1098798,17.1124188 49.5540592,17.1124188 C49.9259303,17.1124188 50.2048337,17.3711445 50.3907692,17.8885958 C50.6593428,18.6544237 51.0518734,19.0373377 51.5683611,19.0373377 C51.8575942,19.0373377 52.1029258,18.9286729 52.304356,18.7113433 C52.5057862,18.4940138 52.6065013,18.2352881 52.6065013,17.9351664 C52.6065013,17.4901583 52.410236,17.0554992 52.0177054,16.6311891 C51.6251748,16.2068791 51.0880276,15.994724 50.4062639,15.994724 C49.6521919,15.994724 48.8800428,16.3051948 48.0898167,16.9261364 C47.2995906,17.5470779 46.7288717,18.3180804 46.3776601,19.2391437 C46.3466708,17.8937703 46.1813948,16.8122971 45.881832,15.994724 C44.3117095,16.4914773 43.0411498,16.7967735 42.070153,16.9106128 L42.070153,16.9106128 L42.070153,17.6091721 L42.3955402,17.6091721 C43.0566444,17.6091721 43.5163185,17.7049006 43.7745623,17.8963575 C44.0328061,18.0878145 44.1800051,18.3568892 44.2161592,18.7035816 C44.2523134,19.0502739 44.2703904,19.9066558 44.2703904,21.2727273 L44.2699952,25.1647003 C44.2665695,26.4524148 44.2408769,27.2404192 44.1929173,27.5287135 C44.1412685,27.8391843 43.9837398,28.0797991 43.7203311,28.250558 C43.4569224,28.421317 43.0153254,28.5066964 42.3955402,28.5066964 L42.3955402,28.5066964 L42.070153,28.5066964 L42.070153,29.2207792 L48.810317,29.2207792 Z M64.6148395,29.5467735 C66.2572702,29.5467735 67.1249695,28.6619318 67.2179373,26.8922484 L67.2179373,26.8922484 L66.644636,26.8922484 C66.4793599,27.9064529 66.05584,28.4135552 65.3740763,28.4135552 C64.9608862,28.4135552 64.6923126,28.2427963 64.5683556,27.9012784 C64.4443985,27.5597606 64.38242,26.7887581 64.38242,25.5882711 L64.38242,25.5882711 L64.38242,20.4499797 C64.38242,19.363332 64.2662103,18.556108 64.0337908,18.0283076 C63.8013714,17.5005073 63.3236203,17.0296266 62.6005376,16.6156656 C61.8774548,16.2017045 60.8599741,15.994724 59.5480955,15.994724 C57.7817077,15.994724 56.4801588,16.3336546 55.6434488,17.0115158 C54.8067387,17.689377 54.3883837,18.3232549 54.3883837,18.9131494 C54.3883837,19.5133929 54.7034412,19.8135146 55.3335562,19.8135146 C56.0359794,19.8135146 56.469829,19.2857143 56.6351051,18.2301136 C56.8107109,17.195211 57.6732453,16.6777597 59.2227083,16.6777597 C59.9974398,16.6777597 60.6223898,16.8329951 61.0975585,17.1434659 C61.5727271,17.4539367 61.8671251,17.8058036 61.9807524,18.1990666 C62.0943797,18.5923295 62.1511933,19.2287946 62.1511933,20.1084619 L62.1511933,20.1084619 L62.1511933,20.7294034 L59.7495257,21.7073864 C57.9211594,22.4628653 56.4879061,23.2390422 55.4497659,24.0359172 C54.4116257,24.8327922 53.8925556,25.7642045 53.8925556,26.8301542 C53.8925556,27.6477273 54.2024482,28.3048904 54.8222334,28.8016437 C55.4420186,29.2983969 56.1805959,29.5467735 57.0379654,29.5467735 C57.7093994,29.5467735 58.4712187,29.3604911 59.3234234,28.9879261 C60.175628,28.6153612 61.118218,28.0616883 62.1511933,27.3269075 C62.2751503,28.0616883 62.5411415,28.6153612 62.9491667,28.9879261 C63.357192,29.3604911 63.9124162,29.5467735 64.6148395,29.5467735 Z M58.3085251,28.4135552 C57.7610482,28.4135552 57.3168688,28.2143364 56.9759869,27.8158989 C56.6351051,27.4174614 56.4646641,26.8922484 56.4646641,26.2402597 C56.4646641,24.5947646 57.7972023,23.2286932 60.4622786,22.1420455 L60.4622786,22.1420455 L62.1511933,21.4590097 L62.1511933,26.4886364 C61.3558023,27.130276 60.6378845,27.6115057 59.9974398,27.9323255 C59.3569951,28.2531453 58.7940235,28.4135552 58.3085251,28.4135552 Z M74.5623918,29.2207792 L74.5623918,28.5066964 C73.8702984,28.5066964 73.3899648,28.4187297 73.1213912,28.2427963 C72.8528177,28.0668628 72.6978714,27.8081372 72.6565523,27.4666193 C72.6152333,27.1251015 72.5945738,26.2557833 72.5945738,24.8586648 L72.5945738,19.565138 C73.2866673,18.7372159 73.9658486,18.1162744 74.6321177,17.7023133 C75.2983867,17.2883523 75.9517436,17.0813718 76.5921883,17.0813718 C77.2532925,17.0813718 77.8059343,17.2598925 78.2501137,17.6169338 C78.6942931,17.9739752 78.9602843,18.4034598 79.0480872,18.9053876 C79.1358901,19.4073153 79.1797915,20.2171266 79.1797915,21.3348214 L79.1797915,21.3348214 L79.1792777,25.1795902 C79.1748243,26.529082 79.1414239,27.3431702 79.0790764,27.6218547 C79.011933,27.9219765 78.8414921,28.1444805 78.5677536,28.2893669 C78.2940152,28.4342532 77.8110992,28.5066964 77.1190057,28.5066964 L77.1190057,28.5066964 L77.1190057,29.2207792 L83.2548792,29.2207792 L83.2548792,28.5066964 C82.6041047,28.5066964 82.152178,28.4109679 81.8990991,28.219511 C81.6460201,28.028054 81.5014036,27.7589793 81.4652494,27.4122869 C81.4290953,27.0655946 81.4110182,26.2143872 81.4110182,24.8586648 L81.4110182,19.8445617 C82.0927819,18.9234984 82.7719632,18.2352881 83.448562,17.779931 C84.1251609,17.3245739 84.7991773,17.0968953 85.4706112,17.0968953 C86.1317154,17.0968953 86.6688626,17.2521307 87.0820527,17.5626015 C87.4952429,17.8730722 87.7509043,18.2456372 87.8490452,18.6802963 C87.9471696,19.1149554 87.9962359,19.7617695 87.9962359,20.6207386 L87.9962359,20.6207386 L87.9957616,25.1753529 C87.9916508,26.5073412 87.9608196,27.31508 87.9032681,27.5985694 C87.8412896,27.9038657 87.6734311,28.1315442 87.3996927,28.2816051 C87.1259542,28.431666 86.653368,28.5066964 85.981934,28.5066964 L85.981934,28.5066964 L85.981934,29.2207792 L92.3192376,29.2207792 L92.3192376,28.5066964 C91.5754954,28.5066964 91.0667551,28.4290787 90.7930166,28.2738433 C90.5192781,28.118608 90.3540021,27.8805804 90.2971884,27.5597606 C90.2403748,27.2389407 90.211968,26.3385755 90.211968,24.8586648 L90.211968,21.0398742 C90.211968,19.7462459 90.1396597,18.8096591 89.9950432,18.2301136 C89.8504266,17.6505682 89.4372365,17.1331169 88.7554728,16.6777597 C88.0737091,16.2224026 87.2421639,15.994724 86.2608374,15.994724 C85.4034678,15.994724 84.561593,16.2327516 83.7352127,16.7088068 C82.9088324,17.184862 82.1031117,17.8989448 81.3180504,18.8510552 C81.0598066,17.8989448 80.6052975,17.184862 79.954523,16.7088068 C79.3037486,16.2327516 78.4567088,15.994724 77.4134037,15.994724 C76.4940557,15.994724 75.6341037,16.2172281 74.8335478,16.6622362 C74.032992,17.1072443 73.2866673,17.7747565 72.5945738,18.6647727 C72.5945738,17.578125 72.4447924,16.6881088 72.1452296,15.994724 L72.1452296,15.994724 L71.9902833,15.994724 C71.0296162,16.3155438 69.8158702,16.5483969 68.3490452,16.6932833 L68.3490452,16.6932833 L68.3490452,17.4073661 C69.0617982,17.4073661 69.5550439,17.4901583 69.8287824,17.6557427 C70.1025209,17.8213271 70.262632,18.0671165 70.3091159,18.3931108 C70.3555998,18.7191051 70.3788418,19.6065341 70.3788418,21.0553977 L70.3783674,25.1774517 C70.3742566,26.5180202 70.3434255,27.3276467 70.285874,27.6063312 C70.2238955,27.9064529 70.056037,28.1315442 69.7822985,28.2816051 C69.50856,28.431666 69.030809,28.5066964 68.3490452,28.5066964 L68.3490452,28.5066964 L68.3490452,29.2207792 L74.5623918,29.2207792 Z" id="ashram"></path>
                <polygon id="X" points="99.4717557 12 101.994529 8.07366234 104.469704 12 107.436739 12 103.48598 6.07075325 107.119409 0.650181818 104.390371 0.650181818 102.089728 4.27449351 99.8684182 0.650181818 96.9807151 0.650181818 100.63001 6.05485714 96.6792516 12"></polygon>
            </g>
        </g>
    </g>
</svg>