<?xml version="1.0" encoding="UTF-8"?>
<svg width="649px" height="669px" viewBox="0 0 649 669" version="1.1" xmlns="http://www.w3.org/2000/svg" xmlns:xlink="http://www.w3.org/1999/xlink">
    <!-- Generator: Sketch 61.2 (89653) - https://sketch.com -->
    <title>Page-2 2</title>
    <desc>Created with Sketch.</desc>
    <g id="Page-2" stroke="none" stroke-width="1" fill="none" fill-rule="evenodd" opacity="0.2">
        <g id="Desktop-HD" transform="translate(0.000000, -21.000000)" stroke="#FFFFFF" stroke-width="5">
            <g id="Page-2-2" transform="translate(-15.000000, 27.000000)">
                <g id="Page-2" transform="translate(0.000000, -0.000000)">
                    <g id="Group-9">
                        <polygon id="Triangle" points="330 -2.6654818e-13 660 659.068719 0 659.068719"></polygon>
                        <polygon id="Triangle" points="330 65.9068719 627 659.068719 33 659.068719"></polygon>
                        <polygon id="Triangle" points="330 131.813744 594 659.068719 66 659.068719"></polygon>
                        <polygon id="Triangle" points="330 197.720616 561 659.068719 99 659.068719"></polygon>
                        <polygon id="Triangle" points="330 263.627488 528 659.068719 132 659.068719"></polygon>
                        <polygon id="Triangle" points="330 329.534359 495 659.068719 165 659.068719"></polygon>
                        <polygon id="Triangle" points="330 395.441231 462 659.068719 198 659.068719"></polygon>
                        <polygon id="Triangle" points="330 461.348103 429 659.068719 231 659.068719"></polygon>
                        <polygon id="Triangle" points="330 527.254975 396 659.068719 264 659.068719"></polygon>
                        <polygon id="Triangle" points="330 593.161847 363 659.068719 297 659.068719"></polygon>
                        <line x1="330.66" y1="0.659068719" x2="330.66" y2="659.727787" id="Line-4" stroke-linecap="square"></line>
                    </g>
                </g>
            </g>
        </g>
    </g>
</svg>