<?xml version="1.0" encoding="UTF-8"?>
<svg width="664px" height="663px" viewBox="0 0 664 663" version="1.1" xmlns="http://www.w3.org/2000/svg" xmlns:xlink="http://www.w3.org/1999/xlink">
    <!-- Generator: Sketch 61.2 (89653) - https://sketch.com -->
    <title>Group</title>
    <desc>Created with Sketch.</desc>
    <g id="Page-2" stroke="none" stroke-width="1" fill="none" fill-rule="evenodd" opacity="0.1">
        <g id="Desktop-HD" transform="translate(-393.000000, -140.000000)" stroke="#FFFFFF" stroke-width="2">
            <g id="Group" transform="translate(395.000000, 143.000000)">
                <polygon id="Triangle" points="330 0 660 658 0 658"></polygon>
                <polygon id="Triangle" points="330 66 627 658 33 658"></polygon>
                <polygon id="Triangle" points="330 131 594 657 66 657"></polygon>
                <polygon id="Triangle" points="330 197 561 658 99 658"></polygon>
                <polygon id="Triangle" points="330 263 528 658 132 658"></polygon>
                <polygon id="Triangle" points="330 329 495 658 165 658"></polygon>
                <polygon id="Triangle" points="330 394 462 657 198 657"></polygon>
                <polygon id="Triangle" points="330 460 429 657 231 657"></polygon>
                <polygon id="Triangle" points="330 526 396 658 264 658"></polygon>
                <polygon id="Triangle" points="330 592 363 658 297 658"></polygon>
                <line x1="330.5" y1="0.657684631" x2="330.5" y2="658.342315" id="Line-4" stroke-linecap="square"></line>
            </g>
        </g>
    </g>
</svg>