<?xml version="1.0" encoding="UTF-8"?>
<svg width="660px" height="571px" viewBox="0 0 660 571" version="1.1" xmlns="http://www.w3.org/2000/svg" xmlns:xlink="http://www.w3.org/1999/xlink">
    <!-- Generator: Sketch 61.2 (89653) - https://sketch.com -->
    <title>Group 9</title>
    <desc>Created with Sketch.</desc>
    <g id="Page-2" stroke="none" stroke-width="1" fill="none" fill-rule="evenodd" opacity="0.2">
        <g id="Group-9" transform="translate(5.000000, 5.000000)" stroke="#FFFFFF" stroke-width="5">
            <polygon id="Triangle" points="325 -2.27373675e-13 650 562.205589 0 562.205589"></polygon>
            <polygon id="Triangle" points="325 56.2205589 617.5 562.205589 32.5 562.205589"></polygon>
            <polygon id="Triangle" points="325 112.441118 585 562.205589 65 562.205589"></polygon>
            <polygon id="Triangle" points="325 168.661677 552.5 562.205589 97.5 562.205589"></polygon>
            <polygon id="Triangle" points="325 224.882236 520 562.205589 130 562.205589"></polygon>
            <polygon id="Triangle" points="325 281.102794 487.5 562.205589 162.5 562.205589"></polygon>
            <polygon id="Triangle" points="325 337.323353 455 562.205589 195 562.205589"></polygon>
            <polygon id="Triangle" points="325 393.543912 422.5 562.205589 227.5 562.205589"></polygon>
            <polygon id="Triangle" points="325 449.764471 390 562.205589 260 562.205589"></polygon>
            <polygon id="Triangle" points="325 505.98503 357.5 562.205589 292.5 562.205589"></polygon>
            <line x1="325.65" y1="0.562205589" x2="325.65" y2="562.767794" id="Line-4" stroke-linecap="square"></line>
        </g>
    </g>
</svg>